<?xml version="1.0" encoding="UTF-8" standalone="no"?>
<svg
   version="1.1"
   id="svg2"
   width="144.94916"
   height="55.661598"
   viewBox="0 0 144.94916 55.661599"
   xmlns="http://www.w3.org/2000/svg">
  <g
     id="g8"
     transform="matrix(1.3333333,0,0,-1.3333333,-192.20816,188.648)">
    <g
       id="g10"
       transform="scale(0.1)">
      <path
         d="m 2528.68,1095.95 v 220.36 c 0,54.43 -44.12,98.55 -98.55,98.55 l -257.27,-0.11 v -0.19 c -18.36,0.35 -36.79,-4.26 -53.03,-14.14 l -50.86,-30.9 c -17.53,27.25 -48.06,45.34 -82.87,45.34 0,0 -298.61,-0.1 -299.23,-0.11 h -0.11 v -0.01 c -32.01,-0.64 -61.79,-16.7 -79.74,-43.32 l -148.61,-220.36 c -20.38,-30.21 -22.42,-69.2 -5.31,-101.37 17.11,-32.17 50.57,-52.28 87.01,-52.28 h 244.69 c 32.75,0 63.37,16.27 81.69,43.42 l 0.9,1.33 c 17.59,-26.93 47.95,-44.762 82.51,-44.762 h 36.2 c 34.78,0 65.28,18.062 82.83,45.262 l 50.9,-30.92 c 15.69,-9.55 33.42,-14.342 51.17,-14.342 0.62,0 259.13,0 259.13,0 54.43,0 98.55,44.122 98.55,98.552"
         style="fill:#ffffff;fill-opacity:1;fill-rule:nonzero;stroke:none"
         id="path14" />
      <path
         d="M 1731.13,1316.21 1582.5,1095.96 h -40.99 l 148.62,220.36 z m 95.36,0 -148.64,-220.25 h -40.99 l 148.62,220.36 z m 96.87,0 -148.64,-220.25 h -40.99 l 148.62,220.36 z m 63.91,-220.26 h -34.81 v 220.36 h 34.81 z m 182.03,0 -151.04,91.77 v 36.71 l 151.04,91.77 v -39.73 l -112.53,-66.82 v -7.3 l 112.53,-66.66 z m 87.03,0 h -34.81 v 220.36 h 34.81 z m 85.71,0 h -34.81 v 220.36 h 34.81 z m 85.7,0 h -34.81 v 220.36 h 34.81 v -220.36"
         style="fill:#231f20;fill-opacity:1;fill-rule:nonzero;stroke:none"
         id="path16" />
    </g>
  </g>
</svg>
