<?xml version="1.0" encoding="UTF-8"?>
<svg id="Ebene_1" data-name="Ebene 1" xmlns="http://www.w3.org/2000/svg" version="1.1" viewBox="0 0 182.5 152.9">
  <defs>
    <style>
      .cls-1 {
        fill: #1d1d1b;
      }

      .cls-1, .cls-2 {
        stroke-width: 0px;
      }

      .cls-2 {
        fill: #fff;
      }
    </style>
  </defs>
  <g>
    <path class="cls-1" d="M182.5,31.9V9.9c0-5.4-4.4-9.9-9.9-9.9h-25.7c-1.8,0-3.7.5-5.3,1.4l-5.1,3.1c-1.8-2.7-4.8-4.5-8.3-4.5,0,0-29.9,0-29.9,0h0c-3.2,0-6.2,1.7-8,4.3l-14.9,22c-2,3-2.2,6.9-.5,10.1,1.7,3.2,5.1,5.2,8.7,5.2h24.5c3.3,0,6.3-1.6,8.2-4.3h0c1.8,2.6,4.8,4.3,8.3,4.3h3.6c3.5,0,6.5-1.8,8.3-4.5l5.1,3.1c1.6,1,3.3,1.4,5.1,1.4h25.9c5.4,0,9.9-4.4,9.9-9.9"/>
    <path class="cls-1" d="M149.5,109.3h-3.3v16h3.3v-8.6c0-2.5,1.4-4.7,3.4-4.7h1.2c1.6,0,2.7,1.6,2.7,3.6v9.7h3.3v-10.1c0-3.5-2.2-6.1-5-6.1h-1.3c-1.3,0-2.4.6-3.2,1.4l-1.1-.3v-.9ZM154.1,70.5v-9c0-1.8,1.1-4.2,3.1-4.2h2.2v-2.8h-1.9c-1.2,0-1.9.3-2.5,1.1l-1-.3v-.8h-3.4v16h3.4ZM147.4,54.5h-3.3v8.6c0,2.5-1.4,4.7-3.4,4.7h-1.2c-1.6,0-2.7-1.6-2.7-3.6v-9.7h-3.3v10.1c0,3.5,2.2,6.1,5,6.1h1.3c1.3,0,2.4-.6,3.2-1.4l1.1.3v.9h3.3v-16ZM141.7,51.7h3v-3h-3v3ZM136,51.7h3v-3h-3v3ZM132.9,114.3c.6-1.6,1.8-2.6,3.1-2.6h1.1c1.4,0,2.6,1.1,2.9,2.6l-.8,1h-5.6l-.8-1.1ZM129.1,117.3c0,4.7,2.9,8.2,6.9,8.2h1.2c3.3,0,6-2.4,6.3-5.5h-3.2c-.3,1.5-1.5,2.7-3.1,2.7h-1.2c-2,0-3.1-1.9-3.4-3.7l.8-1h10.2c0-.3,0-.7,0-1.2,0-4.3-2.7-7.7-6.5-7.7h-1.3c-3.4,0-6.8,3.1-6.8,8.2M127.4,58.3l1-.9h3.9v-2.8h-3.9l-1-.9v-.9c0-1.3.6-1.8,1.7-1.8h2.8v-2.6h-3.6c-2.7,0-4.2,1.6-4.2,4.4v.9l-.9.9h-2.3v2.8h2.3l.9.9v12.2h3.3v-12.2ZM123,106.4h3.7v-3.3h-3.7v3.3ZM123.1,125.2h3.4v-16h-3.4v16ZM115.2,141.7c.6-1.6,1.8-2.6,3.1-2.6h1.1c1.4,0,2.6,1.1,2.9,2.6l-.8,1h-5.6l-.8-1.1ZM111.3,144.6c0,4.7,2.9,8.2,6.9,8.2h1.2c3.3,0,6-2.4,6.3-5.5h-3.2c-.3,1.5-1.5,2.7-3.1,2.7h-1.2c-2,0-3.1-1.9-3.4-3.7l.8-1h10.2c0-.3,0-.7,0-1.2,0-4.3-2.7-7.7-6.5-7.7h-1.3c-3.4,0-6.8,3.1-6.8,8.2M116.7,117.3c0,3.2-1.6,5.4-3.7,5.4h-1.1c-1.9,0-3.7-2.2-3.7-5.4s1.8-5.4,3.7-5.4h1.1c2.1,0,3.7,2.2,3.7,5.4M116.5,103.1v6.7l-1.1.4c-.9-.7-1.9-1.2-3-1.2h-.9c-4,0-6.7,3.6-6.7,8.2s2.7,8.2,6.7,8.2h.8c1.1,0,2.3-.6,3.1-1.3l1,.3v.7h3.3v-22.2h-3.3ZM92.4,114.3c.6-1.6,1.8-2.6,3.1-2.6h1.1c1.4,0,2.6,1.1,2.9,2.6l-.8,1h-5.6l-.8-1.1ZM92,118.9l.8-1h10.2c0-.3,0-.7,0-1.2,0-4.3-2.7-7.7-6.5-7.7h-1.3c-3.4,0-6.8,3.1-6.8,8.2s2.9,8.2,6.9,8.2h1.2c3.3,0,6-2.4,6.3-5.5h-3.2c-.3,1.5-1.5,2.7-3.1,2.7h-1.2c-2,0-3.1-1.9-3.4-3.7M92.2,54.5h-3.3v16h3.3v-8.6c0-2.4,1.3-4.7,3-4.7h1c1.4,0,2.4,1.5,2.4,3.5v9.7h3.3v-8.6c0-2.5,1.3-4.7,3-4.7h1c1.5,0,2.4,1.5,2.4,3.5v9.7h3.3v-10.3c0-3.4-2-5.9-4.9-5.9h-1.2c-1.5,0-3,1-3.7,2.2h-1.1c-.5-1.3-1.7-2.2-3.7-2.2h-1.1c-1.1,0-2.1.6-2.9,1.5l-1-.3v-.9ZM98.3,130.4h-3.3v22.2h3.3v-8.6c0-2.5,1.4-4.7,3.4-4.7h1.2c1.6,0,2.7,1.6,2.7,3.6v9.7h3.3v-10.1c0-3.5-2.2-6.1-5-6.1h-1.3c-1.3,0-2.4.6-3.2,1.4l-1.1-.3v-7.1ZM81,136.6h-3.3v10.1c0,3.5,2.2,6.1,5,6.1h1.3c1.3,0,2.4-.6,3.2-1.4l1.1.3v.9h3.3v-16h-3.3v8.6c0,2.5-1.4,4.7-3.4,4.7h-1.2c-1.6,0-2.7-1.6-2.7-3.6v-9.7ZM69.2,78v3l-.9.9h-2.3v2.8h2.3l.9.9v7.9c0,3,1.5,4.3,4.2,4.3h3.7v-2.8h-2.8c-1,0-1.7-.5-1.7-1.9v-7.5l.9-.9h3.7v-2.8h-3.7l-.9-1v-4.5l-3.3,1.6ZM82.3,103.1l-10.4,16.2h-1l-4.7-16.2h-5.6v22.2h3.5v-14.7h.9l4.1,14.7h2.7l9.7-14.7,1.1.3v14.4s3.5,0,3.5,0v-22.2h-3.7ZM56.5,86.2c0-1.2.9-1.8,2-1.8h1.1c1.1,0,2.1.9,2.2,2h3.2c0-2.8-2.6-4.7-5.4-4.7h-1.3c-2.8,0-5.3,1.9-5.3,4.9s1.4,3.8,4,4.3l3,.6c1.4.3,2,.8,2,2s-1.1,2-2.3,2h-1.1c-1.3,0-2.4-.9-2.6-2.2h-3.3c0,3,2.8,4.9,5.9,4.9h1.3c2.7,0,5.5-1.6,5.5-5.2s-1.7-3.8-4.1-4.3l-3.1-.6c-1.3-.3-1.8-1-1.8-1.9M71.1,136.6h-3.4v16h3.4v-9c0-1.8,1.1-4.2,3.1-4.2h2.2v-2.8h-1.9c-1.2,0-1.9.3-2.5,1.1l-1-.3v-.8ZM55.9,147.9h-3.3c0,3,2.8,4.9,5.9,4.9h1.3c2.7,0,5.5-1.6,5.5-5.2s-1.7-3.8-4.1-4.3l-3.1-.6c-1.3-.3-1.8-1-1.8-1.9s.9-1.8,2-1.8h1.1c1.1,0,2.1.9,2.2,2h3.2c0-2.8-2.6-4.7-5.4-4.7h-1.3c-2.8,0-5.3,1.9-5.3,4.9s1.4,3.8,4,4.3l3,.6c1.4.3,2,.8,2,2s-1.1,2-2.3,2h-1.1c-1.3,0-2.4-.9-2.6-2.2M50.9,57.4l.9.9v7.9c0,3,1.5,4.3,4.1,4.3h3.7v-2.8h-2.8c-1,0-1.7-.5-1.7-1.9v-7.5l1-.9h3.7v-2.8h-3.7l-1-.9v-4.5l-3.3,1.6v3l-.9.9h-2.3v2.8h2.3ZM40,97.9v-8.6c0-2.5,1.4-4.7,3.4-4.7h1.2c1.6,0,2.7,1.6,2.7,3.6v9.7h3.3v-10.1c0-3.5-2.2-6.1-5-6.1h-1.3c-1.3,0-2.4.6-3.2,1.4l-1.1-.3v-.9h-3.3v16h3.3ZM48.9,130.4h-3.3v18.5c0,2.3,1.1,3.7,3.7,3.7h2.4v-2.8h-1.6c-.9,0-1.2-.5-1.2-1.3v-18ZM38.9,136.6h-3.4v16h3.4v-9c0-1.8,1.1-4.2,3.1-4.2h2.2v-2.8h-1.9c-1.2,0-1.9.3-2.5,1.1l-.9-.3v-.8ZM38.7,117.3c0-3.2,1.8-5.4,3.7-5.4h1.1c2.1,0,3.7,2.2,3.7,5.4s-1.6,5.4-3.7,5.4h-1.1c-1.9,0-3.7-2.2-3.7-5.4M35.3,117.3c0,4.6,2.7,8.2,6.7,8.2h.8c1.1,0,2.3-.6,3.1-1.3l1,.3v.7h3.3v-22.2h-3.3v6.7l-1.1.4c-.9-.7-1.9-1.2-3-1.2h-.9c-4,0-6.7,3.6-6.7,8.2M29.9,81.9v8.6c0,2.5-1.4,4.7-3.4,4.7h-1.2c-1.6,0-2.7-1.6-2.7-3.6v-9.7h-3.3v10.1c0,3.5,2.2,6.1,5,6.1h1.3c1.3,0,2.4-.6,3.2-1.4l1.1.3v.9h3.3v-16h-3.3ZM5.6,97.9v-7.7l1.1-.6,7.8,8.4h4.6l-8.4-9.2,8.7-13h-4l-6.4,9.8h-1.4l-2-2.2v-7.6H2v22.2h3.6ZM29.6,125.2h3.3v-10.1c0-3.5-2.2-6.1-5-6.1h-1.3c-1.3,0-2.4.6-3.2,1.4l-1.1-.3v-.9h-3.3v16h3.3v-8.6c0-2.5,1.4-4.7,3.4-4.7h1.2c1.6,0,2.7,1.6,2.7,3.6v9.7ZM22.5,148.1c0-1.8,1.9-2.2,3.1-2.4l2.7-.5.9.6h0c0,2.9-2,4.3-4.2,4.3s-2.5-.7-2.5-2.1M19.1,148.3c0,3,2.3,4.6,5.2,4.6s2.9-.4,4.1-1.3l.9.3v.8h3.1v-10.2c0-3.5-2.3-6-5.9-6h-1.2c-3.4,0-6,2.4-6.2,5.4h3.4c.1-1.7,1.2-2.6,2.8-2.6h1.2c1.5,0,2.5,1.2,2.6,2.6l-.8.9-3.5.6c-3.1.5-5.7,1.8-5.7,5M5.6,130.4H2v22.2h3.6v-7.7l1.1-.6,7.8,8.4h4.6l-8.4-9.2,8.7-13h-4l-6.4,9.8h-1.4l-2-2.2v-7.6ZM4.9,109.3H1.5v10.1c0,3.5,2.2,6.1,5,6.1h1.3c1.3,0,2.4-.6,3.2-1.4l1.1.3v.9h3.3v-16h-3.3v8.6c0,2.5-1.4,4.7-3.4,4.7h-1.2c-1.6,0-2.7-1.6-2.7-3.6v-9.7ZM6.4,37.7l9.9-15v-3.1H.2v3.1h10.9l.5.9L1.6,38.7v3.1h14v-3.1H6.9l-.5-1ZM6.4,66.5l9.9-15v-3.1H.2v3.1h10.9l.5.9-10,15.1v3.1h14v-3.1H6.9l-.5-.9ZM23.3,57h1.1c1.4,0,2.6,1.1,2.9,2.6l-.8,1h-5.6l-.8-1.1c.6-1.6,1.8-2.6,3.1-2.6M23.2,54.3c-3.4,0-6.8,3.1-6.8,8.2s2.9,8.2,6.9,8.2h1.2c3.3,0,6-2.4,6.3-5.5h-3.2c-.3,1.5-1.5,2.7-3.1,2.7h-1.2c-2,0-3.1-1.9-3.4-3.7l.8-1h10.2c0-.3,0-.7,0-1.2,0-4.3-2.7-7.7-6.5-7.7h-1.3ZM27.6,32.6l8.7-13h-4l-6.4,9.8h-1.4l-2-2.2v-7.6h-3.6v22.2h3.6v-7.7l1.1-.6,7.8,8.4h4.6l-8.4-9.2ZM38,55.7l-1.1-.3v-.9h-3.3v16h3.3v-8.6c0-2.5,1.4-4.7,3.4-4.7h1.2c1.6,0,2.7,1.6,2.7,3.6v9.7h3.3v-10.1c0-3.5-2.2-6.1-5-6.1h-1.3c-1.3,0-2.4.6-3.2,1.4M59.9,41.8h3.5v-22.2h-3.7l-10.4,16.2h-1l-4.7-16.2h-5.6v22.2h3.5v-14.7h.9l4.1,14.7h2.7l9.7-14.7,1.1.3v14.4ZM68.2,57.4h2.2v-2.8h-1.9c-1.2,0-1.9.3-2.5,1.1l-.9-.3v-.8h-3.4v16h3.4v-9c0-1.8,1.1-4.2,3.1-4.2M75,54.5h-3.3v10.1c0,3.5,2.2,6.1,5,6.1h1.3c1.3,0,2.4-.6,3.2-1.4l1.1.3v.9h3.3v-16h-3.3v8.6c0,2.5-1.4,4.7-3.4,4.7h-1.2c-1.6,0-2.7-1.6-2.7-3.6v-9.7Z"/>
  </g>
  <path class="cls-2" d="M172.4,31.9h-3.5V9.9h3.5v22ZM163.8,31.9h-3.5V9.9h3.5v22ZM155.3,31.9h-3.5V9.9h3.5v22ZM146.6,31.9l-15.1-9.2v-3.7l15.1-9.2v4l-11.3,6.7v.7l11.3,6.7v4ZM128.4,31.9h-3.5V9.9h3.5v22ZM122,9.9l-14.9,22h-4.1l14.9-22h4.1ZM112.3,9.9l-14.9,22h-4.1l14.9-22h4.1ZM102.7,9.9l-14.9,22h-4.1l14.9-22h4.1Z"/>
</svg>